<svg width="30" height="34" viewBox="0 0 30 34" fill="none" xmlns="http://www.w3.org/2000/svg">
<path d="M1.42321 22.3905C1.75942 22.022 2.11293 21.6685 2.42788 21.2826C3.2877 20.2283 3.53574 19.0331 3.15386 17.7284C2.87198 16.7663 2.54599 15.8183 2.25072 14.8608C2.18646 14.6589 2.1733 14.4442 2.21239 14.2359C2.25148 14.0277 2.3416 13.8324 2.47471 13.6675C2.60782 13.5027 2.77975 13.3734 2.97509 13.2913C3.17043 13.2092 3.38307 13.1768 3.59399 13.1971C3.84924 13.2215 4.09142 13.3215 4.28948 13.4844C4.48754 13.6472 4.63249 13.8655 4.70577 14.1112C4.99868 15.0309 5.28055 15.9537 5.58527 16.867C6.04903 18.2631 7.00886 19.1363 8.43873 19.4748C9.38358 19.6984 10.334 19.8913 11.2812 20.1047C11.448 20.1389 11.6063 20.2058 11.747 20.3016C11.8877 20.3974 12.008 20.5203 12.1009 20.663C12.1938 20.8056 12.2574 20.9654 12.2881 21.1328C12.3187 21.3003 12.3158 21.4722 12.2795 21.6385C12.2429 21.8049 12.1736 21.9623 12.0757 22.1016C11.9778 22.241 11.8532 22.3595 11.7091 22.4503C11.5651 22.5411 11.4044 22.6024 11.2364 22.6307C11.0685 22.6589 10.8966 22.6536 10.7308 22.6149C10.5237 22.5716 10.3166 22.5243 10.1095 22.4787C9.3686 22.3157 8.63085 22.1417 7.88757 21.9929C6.41124 21.6968 5.16404 22.1204 4.14754 23.2259C3.51764 23.9093 2.90031 24.6014 2.27198 25.2849C1.85389 25.74 1.27833 25.8652 0.753942 25.6289C0.569542 25.5454 0.407522 25.4195 0.281095 25.2614C0.154667 25.1033 0.0674293 24.9176 0.0265049 24.7193C-0.0144195 24.5211 -0.00787808 24.3159 0.0456126 24.1207C0.0991032 23.9255 0.198008 23.7457 0.334265 23.5959C0.693308 23.1904 1.06258 22.7952 1.42713 22.3952L1.42321 22.3905Z" fill="white"/>
<path d="M13.3574 9.30507C13.6897 8.94051 14.0393 8.58934 14.3519 8.20825C15.218 7.15002 15.4582 5.94849 15.0739 4.63908C14.7968 3.69423 14.4787 2.75884 14.1842 1.81792C14.022 1.29983 14.1291 0.835273 14.5251 0.462845C14.6936 0.294036 14.9082 0.178677 15.1419 0.1312C15.3757 0.083722 15.6182 0.106233 15.8392 0.195924C16.028 0.261333 16.1982 0.371383 16.3353 0.516698C16.4724 0.662013 16.5723 0.838298 16.6266 1.03055C16.9187 1.94469 17.1991 2.86277 17.5014 3.77297C17.9738 5.19025 18.9415 6.07841 20.4029 6.41068C21.3335 6.62248 22.2674 6.82011 23.1989 7.02719C23.3657 7.06053 23.5243 7.12674 23.6654 7.22195C23.8064 7.31715 23.9271 7.43945 24.0205 7.58174C24.1138 7.72404 24.1779 7.88348 24.2091 8.05079C24.2403 8.21809 24.2378 8.38992 24.202 8.55627C24.1666 8.72299 24.0984 8.88096 24.0011 9.02092C23.9039 9.16086 23.7797 9.27997 23.6358 9.37122C23.4918 9.46248 23.3311 9.52404 23.1631 9.5523C22.995 9.58055 22.823 9.57493 22.6572 9.53576C21.6824 9.32711 20.7131 9.0909 19.7352 8.90586C18.3352 8.63658 17.1305 9.03342 16.1526 10.0704C15.4896 10.7719 14.8511 11.4971 14.1968 12.2073C13.7401 12.7034 13.0858 12.8105 12.5535 12.4876C12.3888 12.3913 12.2477 12.2593 12.1405 12.1014C12.0333 11.9434 11.9627 11.7635 11.934 11.5748C11.9054 11.3861 11.9193 11.1934 11.9747 11.0108C12.0301 10.8281 12.1256 10.6602 12.2543 10.5192C12.6181 10.1106 12.9905 9.71057 13.3567 9.30664L13.3574 9.30507Z" fill="white"/>
<path d="M16.6539 24.6787C16.3571 25.0039 16.0563 25.326 15.7642 25.6551C14.791 26.7574 14.5162 28.0172 14.9328 29.4164C15.2083 30.3463 15.517 31.2667 15.8091 32.1919C16.0327 32.9005 15.6682 33.6186 14.9784 33.8351C14.8159 33.8859 14.6449 33.9038 14.4754 33.8878C14.3059 33.8719 14.1413 33.8224 13.9911 33.7422C13.8409 33.6621 13.7081 33.5529 13.6005 33.4209C13.4929 33.289 13.4126 33.137 13.3643 32.9737C13.0769 32.0809 12.799 31.184 12.51 30.2912C12.0336 28.818 11.04 27.9109 9.52347 27.581C8.61694 27.3836 7.71069 27.1847 6.80469 26.9842C6.07715 26.8267 5.63385 26.1496 5.78975 25.4472C5.94565 24.7449 6.62435 24.3173 7.35189 24.4756C8.28965 24.6795 9.22505 24.8953 10.1652 25.0882C11.6061 25.385 12.8423 24.9984 13.8517 23.9268C14.5131 23.2237 15.154 22.5009 15.8059 21.7891C16.2335 21.3222 16.8736 21.208 17.3996 21.4985C17.5691 21.5911 17.7155 21.7206 17.828 21.8775C17.9405 22.0344 18.0163 22.2146 18.0495 22.4048C18.0828 22.595 18.0728 22.7903 18.0203 22.9761C17.9677 23.1618 17.874 23.3334 17.746 23.478C17.3878 23.8835 17.0177 24.2788 16.6532 24.678L16.6539 24.6787Z" fill="white"/>
<path d="M11.355 7.75959C10.9692 8.18241 10.5558 8.58398 10.2031 9.03278C9.40075 10.0564 9.18896 11.2122 9.54642 12.4555C9.82594 13.4287 10.1575 14.3861 10.4574 15.3538C10.5165 15.5377 10.5331 15.7326 10.5062 15.9239C10.4792 16.1151 10.4092 16.2978 10.3016 16.4582C10.1939 16.6185 10.0514 16.7525 9.8846 16.8499C9.71781 16.9473 9.53112 17.0057 9.33855 17.0207C8.73857 17.0758 8.19292 16.7002 8.00001 16.0924C7.70789 15.1782 7.42762 14.2602 7.12605 13.3492C6.66229 11.9516 5.70325 11.0792 4.27416 10.7398C3.32459 10.5146 2.36873 10.3201 1.41601 10.1099C1.11739 10.0462 0.851293 9.87811 0.665541 9.63578C0.47979 9.39345 0.386562 9.0928 0.402647 8.7879C0.417982 8.48001 0.544145 8.18806 0.757889 7.96592C0.971632 7.74378 1.25853 7.60646 1.5656 7.57928C1.71344 7.56846 1.86208 7.57988 2.00654 7.61314C2.92462 7.8092 3.83954 8.01864 4.75762 8.21233C6.24734 8.52728 7.51343 8.12729 8.5504 7.00686C9.19763 6.30531 9.83696 5.59509 10.4818 4.89118C10.6953 4.65763 10.9877 4.51142 11.3027 4.48074C11.6176 4.45006 11.9327 4.53709 12.1873 4.72505C12.4442 4.91433 12.6214 5.19252 12.6843 5.50537C12.7472 5.81821 12.6912 6.14326 12.5274 6.41711C12.4758 6.49753 12.4165 6.5727 12.3503 6.64152C12.0156 7.0108 11.6787 7.37851 11.3432 7.74385L11.355 7.75959Z" fill="white"/>
<path d="M18.6303 26.2565C19.024 25.8251 19.4468 25.418 19.8035 24.9582C20.6184 23.9078 20.8058 22.7236 20.4216 21.4559C20.1389 20.5221 19.8326 19.5954 19.5381 18.6655C19.4556 18.414 19.4531 18.1431 19.5309 17.8901C19.6087 17.6371 19.7631 17.4145 19.9728 17.2529C20.1721 17.0968 20.4135 17.0037 20.666 16.9858C20.9185 16.9678 21.1707 17.0258 21.39 17.1521C21.6841 17.3189 21.9011 17.5942 21.9948 17.919C22.274 18.8114 22.5564 19.7011 22.842 20.5882C23.3097 22.0465 24.2947 22.9456 25.7852 23.2842C26.7104 23.4952 27.6402 23.6881 28.5662 23.8968C28.7619 23.9367 28.9456 24.0217 29.1027 24.1452C29.2597 24.2687 29.3857 24.4272 29.4706 24.608C29.5555 24.7888 29.5969 24.987 29.5917 25.1867C29.5864 25.3864 29.5345 25.582 29.4402 25.7581C29.3092 26.0068 29.0996 26.2053 28.8442 26.3225C28.5887 26.4397 28.3016 26.4691 28.0276 26.4061C27.0733 26.203 26.123 25.9794 25.1671 25.7849C23.712 25.4889 22.4719 25.8991 21.4609 26.9817C20.798 27.6904 20.1547 28.4195 19.4925 29.1305C19.3002 29.3396 19.0429 29.4775 18.7623 29.522C18.4817 29.5664 18.1944 29.5148 17.9469 29.3753C17.6921 29.2385 17.4921 29.0182 17.3806 28.7514C17.269 28.4845 17.2527 28.1875 17.3343 27.91C17.4007 27.7097 17.5062 27.5245 17.6445 27.3652C17.9595 26.988 18.3043 26.6321 18.6374 26.2676L18.6303 26.2565Z" fill="white"/>
<path d="M24.8304 18.4933C24.6536 17.9366 24.5125 17.3669 24.2926 16.8281C23.7904 15.5971 22.8585 14.8427 21.5686 14.5417C20.6185 14.3195 19.6628 14.1214 18.7103 13.9115C18.4512 13.8573 18.2153 13.724 18.0351 13.5301C17.855 13.3362 17.7394 13.0912 17.7043 12.8288C17.6687 12.5782 17.7088 12.3226 17.8195 12.0949C17.9303 11.8673 18.1065 11.6778 18.3256 11.5511C18.6171 11.3798 18.964 11.3295 19.2921 11.4108C20.2046 11.6151 21.1163 11.8155 22.0273 12.0117C23.524 12.3358 24.7953 11.9323 25.8337 10.8108C26.4791 10.1151 27.1111 9.40622 27.7547 8.70865C27.8871 8.55908 28.0527 8.44251 28.2381 8.36827C28.4236 8.29403 28.6238 8.26418 28.8229 8.28106C29.0219 8.29794 29.2143 8.3611 29.3846 8.46551C29.5549 8.56993 29.6984 8.71269 29.8037 8.88243C29.9536 9.12021 30.0207 9.40091 29.9944 9.68077C29.9682 9.96064 29.8501 10.224 29.6586 10.4297C29.0056 11.1546 28.3367 11.8659 27.6904 12.5964C26.7064 13.7085 26.4416 14.9876 26.8737 16.4044C27.156 17.3329 27.4657 18.2546 27.7504 19.1835C27.8353 19.4546 27.8262 19.7465 27.7244 20.0117C27.6226 20.2769 27.4341 20.4999 27.1896 20.6445C26.9438 20.7968 26.653 20.8598 26.3661 20.823C26.0793 20.7862 25.8139 20.6518 25.6144 20.4424C25.4741 20.2847 25.3665 20.1008 25.2976 19.9013C25.1285 19.44 24.9927 18.9634 24.8435 18.4926L24.8304 18.4933Z" fill="white"/>
</svg>
