<svg width="22" height="19" viewBox="0 0 22 19" fill="none" xmlns="http://www.w3.org/2000/svg">
<path d="M7.99979 1.39776C8.13524 1.06602 8.605 1.06602 8.74044 1.39776L10.6259 6.01581C10.6665 6.11533 10.7455 6.19431 10.845 6.23494L15.4631 8.1204C15.7948 8.25584 15.7948 8.7256 15.4631 8.86105L10.845 10.7465C10.7455 10.7871 10.6665 10.8661 10.6259 10.9656L8.74044 15.5837C8.605 15.9154 8.13524 15.9154 7.99979 15.5837L6.11434 10.9656C6.0737 10.8661 5.99473 10.7871 5.89521 10.7465L1.27715 8.86105C0.945414 8.72561 0.945413 8.25584 1.27715 8.1204L5.89521 6.23494C5.99473 6.19431 6.0737 6.11533 6.11434 6.01581L7.99979 1.39776Z" fill="white"/>
<path d="M7.99979 1.39776C8.13524 1.06602 8.605 1.06602 8.74044 1.39776L10.6259 6.01581C10.6665 6.11533 10.7455 6.19431 10.845 6.23494L15.4631 8.1204C15.7948 8.25584 15.7948 8.7256 15.4631 8.86105L10.845 10.7465C10.7455 10.7871 10.6665 10.8661 10.6259 10.9656L8.74044 15.5837C8.605 15.9154 8.13524 15.9154 7.99979 15.5837L6.11434 10.9656C6.0737 10.8661 5.99473 10.7871 5.89521 10.7465L1.27715 8.86105C0.945414 8.72561 0.945413 8.25584 1.27715 8.1204L5.89521 6.23494C5.99473 6.19431 6.0737 6.11533 6.11434 6.01581L7.99979 1.39776Z" fill="url(#paint0_linear_11_489)"/>
<path d="M18.1844 12.9544C18.2352 12.83 18.4113 12.83 18.4621 12.9544L19.1692 14.6862C19.1844 14.7235 19.214 14.7531 19.2513 14.7683L20.9831 15.4754C21.1075 15.5262 21.1075 15.7023 20.9831 15.7531L19.2513 16.4602C19.214 16.4754 19.1844 16.505 19.1692 16.5423L18.4621 18.2741C18.4113 18.3985 18.2352 18.3985 18.1844 18.2741L17.4773 16.5423C17.4621 16.505 17.4325 16.4754 17.3952 16.4602L15.6634 15.7531C15.539 15.7023 15.539 15.5262 15.6634 15.4754L17.3952 14.7683C17.4325 14.7531 17.4621 14.7235 17.4773 14.6862L18.1844 12.9544Z" fill="white"/>
<defs>
<linearGradient id="paint0_linear_11_489" x1="8.37012" y1="12.4907" x2="8.37012" y2="3.30905" gradientUnits="userSpaceOnUse">
<stop stop-color="#4776E6"/>
<stop offset="1" stop-color="#8E54E9"/>
</linearGradient>
</defs>
</svg>
