<svg width="8" height="8" viewBox="0 0 8 8" fill="none" xmlns="http://www.w3.org/2000/svg">
<path d="M3.81484 0.453518C3.88256 0.287648 4.11744 0.287648 4.18516 0.453517L5.12789 2.76254C5.14821 2.8123 5.1877 2.85179 5.23745 2.87211L7.54648 3.81484C7.71235 3.88256 7.71235 4.11744 7.54648 4.18516L5.23745 5.12789C5.1877 5.14821 5.14821 5.1877 5.12789 5.23745L4.18516 7.54648C4.11744 7.71235 3.88256 7.71235 3.81484 7.54648L2.87211 5.23745C2.85179 5.1877 2.8123 5.14821 2.76254 5.12789L0.453518 4.18516C0.287648 4.11744 0.287648 3.88256 0.453517 3.81484L2.76254 2.87211C2.8123 2.85179 2.85179 2.8123 2.87211 2.76254L3.81484 0.453518Z" fill="white"/>
</svg>
